<?xml version="1.0" standalone="no"?>
<!DOCTYPE svg PUBLIC "-//W3C//DTD SVG 20010904//EN"
 "http://www.w3.org/TR/2001/REC-SVG-20010904/DTD/svg10.dtd">
<svg version="1.0" xmlns="http://www.w3.org/2000/svg"
 width="256.000000pt" height="232.000000pt" viewBox="0 0 256.000000 232.000000"
 preserveAspectRatio="xMidYMid meet">
<metadata>
Created by potrace 1.10, written by Peter Selinger 2001-2011
</metadata>
<g transform="translate(0.000000,232.000000) scale(0.100000,-0.100000)"
fill="#000000" stroke="none">
<path d="M120 2050 c0 -5 7 -10 16 -10 8 0 12 5 9 10 -3 6 -10 10 -16 10 -5 0
-9 -4 -9 -10z"/>
<path d="M619 1775 c-29 -16 -79 -83 -79 -107 0 -9 -4 -19 -9 -22 -8 -5 -21
-53 -26 -101 -6 -50 29 -171 52 -180 18 -6 16 5 -6 56 -19 43 -28 125 -17 164
30 112 79 179 133 183 124 9 113 -302 -14 -388 -26 -18 -32 -26 -20 -28 43 -9
107 73 133 170 47 176 -34 315 -147 253z"/>
<path d="M388 1610 c-46 -27 -62 -135 -32 -222 16 -49 75 -118 99 -118 24 0
17 19 -14 34 -42 22 -75 104 -76 187 0 59 3 69 24 87 24 18 61 19 61 1 0 -5 7
-9 15 -9 25 0 17 18 -15 35 -34 17 -39 18 -62 5z"/>
<path d="M629 1613 c-1 -5 -3 -17 -5 -28 -1 -11 -15 -85 -29 -165 -14 -80 -29
-164 -32 -187 -3 -24 -8 -43 -12 -43 -11 0 -26 15 -30 30 -19 78 -34 126 -41
133 -14 15 -21 -12 -9 -35 7 -13 14 -36 16 -51 2 -16 8 -37 14 -48 8 -17 7
-23 -8 -35 -16 -12 -14 -14 27 -15 25 -1 51 -1 58 0 6 1 12 -3 12 -9 0 -6 -10
-11 -22 -10 -35 3 -48 1 -48 -9 0 -5 8 -8 18 -7 11 0 16 -5 13 -14 -2 -8 -4
-29 -4 -47 -1 -25 -4 -30 -14 -21 -9 7 -13 7 -13 -1 0 -7 -5 -9 -10 -6 -13 8
-31 -40 -24 -60 4 -8 1 -15 -6 -15 -6 0 -9 4 -5 9 12 20 -17 22 -34 2 -16 -19
-20 -19 -25 -5 -9 23 -7 36 3 30 12 -8 21 18 14 43 -3 11 -2 29 3 38 4 10 8
25 9 34 1 9 5 29 9 44 10 41 -14 27 -29 -17 -7 -21 -10 -40 -7 -42 3 -3 0 -11
-5 -18 -6 -7 -14 -38 -17 -70 -6 -48 -5 -58 11 -67 17 -11 17 -11 -2 -9 -18 3
-20 -4 -23 -50 -2 -36 0 -52 7 -47 6 3 11 1 11 -4 0 -6 -6 -11 -12 -11 -8 -1
-6 -6 5 -14 10 -8 17 -18 16 -22 -5 -28 2 -46 17 -40 8 3 12 2 9 -4 -18 -29
81 -84 150 -84 114 0 184 94 176 237 -1 24 -21 22 -21 -3 0 -13 -7 -20 -20
-20 -23 0 -27 15 -6 27 27 16 35 46 21 81 l-14 32 72 0 c40 1 93 2 120 4 40 3
47 1 48 -15 2 -19 5 -37 8 -41 1 -2 3 -23 5 -48 6 -88 17 -128 39 -143 12 -8
36 -28 52 -44 17 -17 55 -52 86 -79 30 -27 88 -78 129 -114 40 -36 90 -78 111
-93 l38 -28 530 3 c589 3 571 1 556 67 -4 17 -10 31 -13 31 -7 0 -23 14 -144
122 -40 36 -93 83 -118 103 -25 21 -71 61 -102 90 -54 51 -58 57 -63 112 -4
32 -7 62 -8 68 -1 5 14 10 33 10 19 0 41 4 47 8 7 5 13 4 13 0 0 -5 79 -8 175
-8 133 0 176 3 180 13 4 10 -41 12 -221 12 -124 -1 -228 0 -230 2 -2 2 -17
123 -35 268 -22 187 -36 270 -47 282 -14 16 -42 17 -371 13 -196 -2 -356 -4
-356 -5 0 0 -73 -1 -161 -3 -145 -2 -164 -4 -184 -22 -17 -16 -20 -26 -14 -59
3 -21 8 -54 9 -73 2 -18 6 -46 9 -61 3 -15 8 -54 11 -87 5 -57 20 -166 30
-228 l5 -28 -122 3 -121 3 -20 70 c-11 39 -22 72 -24 74 -1 2 -23 4 -48 3 -25
0 -45 3 -45 6 0 4 7 34 14 67 8 33 17 86 20 118 3 32 8 62 11 66 2 5 6 23 9
42 2 19 8 53 11 77 5 29 4 42 -4 42 -6 0 -12 -3 -12 -7z m1335 -24 c3 -3 17
-99 31 -215 13 -115 30 -240 36 -279 12 -80 15 -101 23 -167 6 -47 5 -48 -23
-48 l-28 0 -13 118 c-8 64 -15 119 -15 122 -1 3 -5 37 -10 75 -4 39 -9 77 -10
85 -2 8 -6 49 -10 90 -4 41 -10 79 -13 84 -3 6 -5 27 -5 49 0 24 -3 35 -9 29
-13 -13 -13 -35 1 -137 6 -49 14 -112 17 -140 5 -52 9 -85 18 -145 3 -19 10
-75 16 -124 6 -49 12 -93 13 -98 2 -8 -247 -13 -820 -17 -106 -1 -123 -3 -123
-17 0 -12 6 -15 23 -11 12 4 248 7 523 8 555 1 504 7 573 -62 14 -15 51 -49
82 -75 30 -27 87 -77 125 -110 38 -34 85 -75 104 -92 31 -27 33 -32 20 -46
-13 -13 -88 -16 -532 -20 l-518 -5 -49 37 c-26 20 -79 65 -117 99 -38 34 -86
77 -107 95 -165 142 -160 134 -173 273 -3 39 -10 77 -15 86 -4 9 -6 19 -3 22
8 7 -43 432 -56 470 -7 22 -5 32 8 45 15 15 51 17 302 20 157 2 286 4 287 5 5
5 442 1 447 -4z m-1291 -452 c3 -17 8 -40 12 -49 5 -13 2 -18 -9 -18 -9 0 -16
4 -16 10 0 5 -11 -2 -24 -15 -27 -27 -33 -85 -10 -85 18 0 28 -20 16 -32 -8
-8 -16 -6 -27 6 -17 17 -40 22 -31 7 4 -5 1 -11 -5 -13 -8 -3 -7 -21 1 -65 9
-46 15 -59 24 -51 13 12 16 49 4 42 -4 -3 -8 0 -8 5 0 6 5 11 10 11 19 0 10
19 -10 22 -12 2 -17 7 -12 15 11 17 55 4 48 -14 -3 -8 -1 -11 4 -8 13 8 13 -7
0 -39 -7 -20 -6 -24 5 -20 7 3 11 12 8 20 -3 8 0 14 6 14 7 0 7 8 1 26 -6 14
-7 31 -3 37 4 6 6 24 5 39 -2 20 2 28 14 28 13 0 14 3 4 15 -17 20 -9 36 11
22 10 -8 19 -35 23 -70 6 -49 5 -57 -10 -57 -11 0 -15 6 -11 20 3 11 2 20 -3
20 -13 0 -20 -44 -9 -51 7 -4 8 -16 3 -30 -4 -13 -8 -28 -9 -34 0 -5 -6 -9
-13 -8 -7 2 -12 -2 -12 -8 0 -6 -9 -9 -20 -6 -12 3 -20 0 -20 -8 0 -9 8 -11
23 -8 12 3 19 2 15 -2 -4 -5 -3 -14 3 -22 19 -22 -15 -16 -35 6 -10 11 -24 17
-31 14 -19 -7 -8 -31 13 -29 9 0 16 -5 15 -11 -2 -9 10 -12 37 -10 23 1 40 7
40 14 0 7 8 16 17 22 10 5 15 12 11 16 -3 4 -16 -3 -27 -14 -19 -19 -22 -20
-28 -5 -4 10 0 22 9 28 8 6 17 18 20 26 5 12 7 12 13 -4 7 -16 9 -15 22 10 13
29 13 28 8 -14 -8 -64 -28 -88 -78 -95 -31 -4 -47 -1 -61 11 -14 13 -20 14
-23 4 -4 -10 -8 -10 -20 -1 -12 10 -16 10 -23 -2 -8 -12 -12 -11 -26 3 -16 16
-16 18 -1 24 10 3 27 4 38 1 14 -4 19 -1 16 7 -3 6 1 20 8 30 14 19 9 50 -6
41 -4 -3 -6 -12 -2 -21 8 -21 -24 -42 -55 -36 -19 4 -23 2 -17 -9 8 -12 6 -12
-8 0 -9 7 -17 22 -17 33 0 11 -5 28 -10 38 -7 13 -7 21 0 25 5 3 10 -1 10 -9
0 -9 9 -21 19 -28 11 -7 17 -18 13 -27 -4 -11 -1 -13 12 -8 10 4 22 7 27 7 5
0 9 8 9 18 0 10 5 23 12 30 9 9 9 12 0 12 -7 0 -12 -5 -12 -11 0 -6 -7 -9 -15
-5 -8 3 -15 1 -15 -4 0 -5 -7 -7 -15 -4 -8 3 -14 9 -13 12 2 21 -4 32 -18 32
-9 0 -12 5 -8 12 5 7 3 8 -5 4 -19 -12 -30 -49 -19 -63 6 -8 6 -18 -1 -30 -9
-16 -10 -15 -11 10 0 15 -4 27 -10 27 -5 0 -8 8 -6 18 7 40 19 52 50 53 17 1
23 3 14 6 -10 2 -18 11 -18 19 0 12 3 12 20 2 11 -7 20 -20 19 -28 -3 -35 2
-50 16 -50 18 0 19 12 4 27 -12 12 -15 69 -4 102 4 15 15 21 34 21 16 0 34 7
42 16 11 14 10 15 -6 12 -25 -4 -32 27 -9 36 15 6 15 4 3 -11 -13 -15 -12 -16
6 -9 11 5 28 11 38 13 9 3 17 10 17 15 0 6 7 7 16 4 12 -5 15 -2 10 10 -3 8
-6 19 -6 23 0 5 -11 6 -25 3 -30 -5 -35 17 -5 25 11 3 20 10 20 15 0 24 28
-15 33 -45z m-65 -18 c-20 -13 -38 -11 -38 5 0 9 8 12 26 8 19 -3 22 -7 12
-13z m44 -102 c-7 -8 -9 -17 -5 -20 3 -4 1 -7 -5 -7 -13 0 -15 19 -6 45 5 11
10 13 17 6 7 -7 7 -15 -1 -24z m-122 -177 c0 -5 -5 -10 -11 -10 -5 0 -7 5 -4
10 3 6 8 10 11 10 2 0 4 -4 4 -10z m-70 -60 c0 -10 7 -20 15 -24 8 -3 15 -12
15 -21 0 -8 6 -15 14 -15 8 0 22 -3 30 -6 12 -5 15 -2 10 10 -3 9 -1 16 5 16
6 0 11 -9 11 -20 0 -23 21 -23 74 -1 40 16 56 8 25 -12 -38 -25 -115 -33 -137
-15 -9 8 -25 18 -35 21 -9 4 -20 15 -24 24 -3 10 -13 26 -20 35 -8 9 -12 22
-8 28 9 15 25 3 25 -20z m140 -50 c0 -5 -7 -10 -15 -10 -8 0 -15 5 -15 10 0 6
7 10 15 10 8 0 15 -4 15 -10z"/>
<path d="M1549 1535 c-3 -2 -100 -5 -217 -6 -117 -1 -212 -5 -212 -10 0 -5 -9
-4 -20 3 -17 11 -22 10 -29 -1 -5 -7 -11 -9 -14 -4 -4 5 -20 8 -38 5 l-32 -5
6 -56 c12 -111 17 -147 31 -220 8 -41 12 -80 9 -86 -2 -7 1 -16 6 -20 6 -3 9
-10 6 -15 -6 -9 15 -162 25 -190 1 -3 2 -12 1 -22 -2 -18 15 -33 23 -20 2 4 1
26 -4 48 -4 21 -11 62 -14 89 -3 28 -15 111 -26 185 -12 74 -23 151 -25 170
-3 19 -7 54 -11 78 l-7 42 69 1 c38 1 112 3 164 5 52 1 214 4 360 5 268 2 290
4 290 20 0 15 -207 11 -213 -3 -4 -10 -6 -10 -6 0 -1 8 -20 12 -59 12 -32 0
-61 -2 -63 -5z"/>
<path d="M1188 1422 c-97 -3 -119 -18 -35 -24 102 -6 237 3 237 16 0 13 -25
14 -202 8z"/>
<path d="M1685 1308 c6 -22 6 -22 -9 -4 -16 20 -16 19 -16 -1 0 -26 25 -37 40
-18 14 16 7 45 -10 45 -7 0 -9 -9 -5 -22z"/>
<path d="M1747 1324 c-4 -4 -7 -16 -7 -26 0 -14 6 -19 23 -16 14 2 22 10 22
23 0 20 -25 32 -38 19z"/>
<path d="M1394 1314 c-19 -8 -4 -44 18 -44 14 0 19 6 16 22 -3 22 -15 30 -34
22z m26 -24 c0 -5 -4 -10 -10 -10 -5 0 -10 5 -10 10 0 6 5 10 10 10 6 0 10 -4
10 -10z"/>
<path d="M1494 1305 c-4 -9 -2 -21 4 -27 15 -15 44 -1 40 19 -4 23 -36 29 -44
8z"/>
<path d="M1582 1300 c2 -14 9 -25 18 -25 9 0 16 10 17 25 2 21 2 22 -6 5 -8
-19 -8 -19 -20 0 -11 19 -11 18 -9 -5z"/>
<path d="M1750 1242 c0 -4 9 -8 20 -9 11 -1 18 2 15 8 -7 11 -35 12 -35 1z"/>
<path d="M1587 1233 c-14 -13 -6 -24 13 -18 11 4 20 2 20 -4 0 -6 5 -11 10
-11 16 0 11 27 -6 34 -20 8 -29 8 -37 -1z"/>
<path d="M1676 1231 c-10 -16 6 -42 23 -39 9 2 17 13 19 26 3 16 -2 22 -17 22
-11 0 -22 -4 -25 -9z"/>
<path d="M1320 1210 c-8 -15 -6 -21 9 -29 14 -8 22 -7 30 3 13 16 5 27 -15 19
-10 -4 -12 0 -8 11 9 23 -3 20 -16 -4z"/>
<path d="M1404 1215 c-4 -9 -2 -21 4 -27 15 -15 44 -1 40 19 -4 23 -36 29 -44
8z m26 -5 c0 -5 -5 -10 -11 -10 -5 0 -7 5 -4 10 3 6 8 10 11 10 2 0 4 -4 4
-10z"/>
<path d="M1496 1214 c-7 -18 0 -34 16 -34 5 0 7 7 4 16 -4 12 -2 15 9 10 9 -3
15 0 15 9 0 20 -36 19 -44 -1z"/>
<path d="M1230 1190 c0 -15 7 -20 25 -20 18 0 25 5 25 20 0 15 -7 20 -25 20
-18 0 -25 -5 -25 -20z"/>
<path d="M1723 1188 c-18 -13 -36 -32 -41 -44 -13 -27 -4 -69 18 -89 23 -20
86 -26 83 -7 -2 6 2 12 7 12 5 0 10 -4 10 -10 0 -20 27 -9 48 20 36 48 39 84
9 114 -34 34 -90 35 -134 4z m62 2 c-3 -5 -11 -10 -16 -10 -6 0 -7 5 -4 10 3
6 11 10 16 10 6 0 7 -4 4 -10z m50 0 c3 -5 2 -10 -4 -10 -5 0 -13 5 -16 10 -3
6 -2 10 4 10 5 0 13 -4 16 -10z m-105 -35 c-7 -9 -15 -13 -17 -11 -7 7 7 26
19 26 6 0 6 -6 -2 -15z m99 9 c17 -4 31 -10 31 -15 0 -5 -3 -8 -7 -8 -20 3
-24 -2 -13 -16 13 -16 9 -27 -13 -31 -7 -2 -27 -7 -44 -13 -21 -6 -35 -6 -39
0 -3 5 -15 7 -27 4 -12 -2 -16 -2 -9 1 6 3 12 11 12 17 0 15 51 67 66 67 6 0
26 -3 43 -6z m-89 -104 c0 -5 -4 -10 -10 -10 -5 0 -10 5 -10 10 0 6 5 10 10
10 6 0 10 -4 10 -10z m90 0 c0 -5 -2 -10 -4 -10 -3 0 -8 5 -11 10 -3 6 -1 10
4 10 6 0 11 -4 11 -10z"/>
<path d="M1764 1135 c-7 -18 11 -43 23 -31 4 4 1 12 -7 17 -13 8 -12 9 2 7 21
-4 25 16 3 20 -8 2 -18 -4 -21 -13z"/>
<path d="M1604 1136 c-17 -13 -17 -14 2 -23 23 -12 44 -6 44 12 0 19 -26 25
-46 11z m33 -12 c-3 -3 -12 -4 -19 -1 -8 3 -5 6 6 6 11 1 17 -2 13 -5z"/>
<path d="M1329 1124 c-12 -15 -12 -16 9 -10 13 4 22 3 22 -3 0 -5 -8 -11 -17
-13 -17 -3 -17 -4 0 -11 24 -9 35 20 15 39 -13 13 -16 13 -29 -2z"/>
<path d="M1420 1125 c-15 -18 -5 -35 21 -35 12 0 19 7 19 19 0 24 -25 34 -40
16z m30 -9 c0 -3 -4 -8 -10 -11 -5 -3 -10 -1 -10 4 0 6 5 11 10 11 6 0 10 -2
10 -4z"/>
<path d="M1511 1127 c-9 -11 -8 -17 3 -26 18 -15 48 -3 44 18 -4 21 -32 26
-47 8z m24 -7 c3 -5 1 -10 -4 -10 -6 0 -11 5 -11 10 0 6 2 10 4 10 3 0 8 -4
11 -10z"/>
<path d="M1238 1113 c-11 -14 -10 -15 10 -9 23 8 32 -9 10 -17 -7 -2 -10 -7
-7 -11 7 -8 39 20 39 34 0 15 -39 18 -52 3z"/>
<path d="M1240 1034 c-11 -12 -10 -18 4 -32 17 -16 18 -16 11 6 -7 23 10 32
18 10 2 -7 8 -10 12 -6 8 8 -12 38 -25 38 -4 0 -13 -7 -20 -16z"/>
<path d="M1336 1033 c-4 -9 0 -23 8 -31 22 -22 50 2 35 29 -12 24 -35 25 -43
2z m26 -15 c-7 -7 -12 -8 -12 -2 0 14 12 26 19 19 2 -3 -1 -11 -7 -17z"/>
<path d="M1533 1043 c-7 -3 -13 -12 -12 -21 0 -11 2 -13 6 -4 4 10 8 10 19 1
11 -9 14 -8 14 4 0 19 -10 26 -27 20z"/>
<path d="M1431 1023 c-1 -17 5 -23 19 -23 13 0 20 7 20 20 0 11 -5 20 -11 20
-5 0 -8 -4 -4 -9 3 -5 1 -12 -4 -15 -5 -4 -12 2 -14 11 -4 14 -5 13 -6 -4z"/>
<path d="M2043 791 c-1 -10 19 -35 45 -59 26 -22 64 -57 86 -76 l39 -36 -104
-1 c-164 -1 -494 -8 -612 -13 l-109 -5 -91 86 c-51 48 -93 90 -95 95 -5 11
-32 10 -32 -2 0 -9 30 -39 152 -151 l51 -46 143 1 c78 1 146 4 149 8 11 11 54
-13 60 -33 4 -10 18 -28 32 -39 23 -18 35 -20 102 -14 42 3 97 5 124 4 27 0
47 3 47 10 0 5 7 10 15 10 23 0 18 12 -16 41 l-31 26 101 1 c55 0 109 3 121 7
14 5 20 2 20 -9 0 -9 7 -16 15 -16 27 0 16 15 -67 94 -46 43 -97 91 -113 107
-26 25 -31 26 -32 10z m-45 -218 c54 -31 40 -39 -70 -42 -57 -1 -111 -4 -120
-7 -12 -3 -28 6 -48 28 -16 18 -30 35 -30 38 0 3 53 4 118 3 93 -1 125 -5 150
-20z"/>
<path d="M1796 562 c-2 -4 4 -9 15 -9 11 -1 17 2 14 8 -7 11 -22 12 -29 1z"/>
<path d="M1925 560 c-13 -6 -15 -9 -5 -9 8 0 22 4 30 9 18 12 2 12 -25 0z"/>
<path d="M1840 556 c0 -10 28 -13 41 -5 10 6 7 9 -13 9 -16 0 -28 -2 -28 -4z"/>
<path d="M1210 789 c0 -13 -18 -12 423 -14 295 -1 397 1 397 10 0 9 -106 12
-410 12 -236 1 -410 -3 -410 -8z"/>
<path d="M1855 750 c-16 -7 -17 -9 -3 -9 9 -1 20 4 23 9 7 11 7 11 -20 0z"/>
<path d="M1590 741 c0 -6 5 -13 10 -16 6 -3 10 1 10 9 0 9 -4 16 -10 16 -5 0
-10 -4 -10 -9z"/>
<path d="M1625 740 c3 -5 8 -10 11 -10 2 0 4 5 4 10 0 6 -5 10 -11 10 -5 0 -7
-4 -4 -10z"/>
<path d="M1470 732 c0 -17 22 -29 45 -24 22 4 23 6 9 20 -14 13 -17 13 -25 1
-6 -10 -9 -10 -9 -1 0 6 -4 12 -10 12 -5 0 -10 -4 -10 -8z"/>
<path d="M1755 730 c12 -6 25 -21 30 -32 6 -12 16 -24 23 -26 11 -3 10 3 -2
27 -9 17 -21 31 -25 31 -5 0 -18 2 -28 5 -14 4 -13 3 2 -5z"/>
<path d="M1991 731 c-8 -5 -9 -11 -3 -15 5 -3 12 1 16 9 6 17 6 18 -13 6z"/>
<path d="M1550 720 c0 -5 5 -10 10 -10 6 0 10 5 10 10 0 6 -4 10 -10 10 -5 0
-10 -4 -10 -10z"/>
<path d="M1876 709 c21 -23 28 -24 20 -4 -7 18 5 20 23 3 11 -11 13 -10 9 2
-3 9 -18 16 -37 17 -32 1 -32 1 -15 -18z"/>
<path d="M1354 709 c-3 -5 1 -9 10 -9 8 0 16 -5 18 -12 3 -8 6 -6 10 4 7 18
-28 33 -38 17z"/>
<path d="M1662 706 c7 -8 15 -12 17 -11 5 6 -10 25 -20 25 -5 0 -4 -6 3 -14z"/>
<path d="M1626 696 c3 -8 12 -17 20 -20 12 -4 12 -2 4 14 -12 23 -32 27 -24 6z"/>
<path d="M1515 681 c-9 -16 9 -20 23 -5 10 12 10 14 -2 14 -8 0 -17 -4 -21 -9z"/>
<path d="M1940 681 c0 -5 7 -12 16 -15 14 -5 15 -4 4 9 -14 17 -20 19 -20 6z"/>
<path d="M1400 670 c0 -5 9 -10 20 -10 11 0 20 5 20 10 0 6 -9 10 -20 10 -11
0 -20 -4 -20 -10z"/>
<path d="M2040 670 c0 -5 5 -10 10 -10 6 0 10 5 10 10 0 6 -4 10 -10 10 -5 0
-10 -4 -10 -10z"/>
<path d="M1546 653 c-6 -14 -5 -15 5 -6 7 7 10 15 7 18 -3 3 -9 -2 -12 -12z"/>
<path d="M1570 651 c0 -5 5 -13 10 -16 6 -3 10 -2 10 4 0 5 -4 13 -10 16 -5 3
-10 2 -10 -4z"/>
<path d="M520 1010 c0 -5 7 -10 15 -10 8 0 15 5 15 10 0 6 -7 10 -15 10 -8 0
-15 -4 -15 -10z"/>
<path d="M565 1010 c-3 -5 1 -10 9 -10 8 0 18 5 21 10 3 6 -1 10 -9 10 -8 0
-18 -4 -21 -10z"/>
<path d="M545 980 c-3 -5 -1 -10 6 -10 6 0 1 -9 -12 -21 -13 -11 -18 -18 -11
-14 10 5 11 0 6 -19 -4 -16 -2 -26 5 -26 6 0 12 8 13 18 0 9 2 22 2 29 1 6 5
15 9 19 10 10 9 34 -2 34 -6 0 -13 -4 -16 -10z"/>
<path d="M680 980 c0 -5 5 -10 11 -10 5 0 7 5 4 10 -3 6 -8 10 -11 10 -2 0 -4
-4 -4 -10z"/>
<path d="M2170 1442 c-39 -17 -64 -42 -53 -53 7 -7 14 -6 24 3 8 8 22 17 32
21 9 3 17 13 17 22 0 8 -1 15 -2 14 -2 0 -10 -3 -18 -7z"/>
<path d="M2188 1344 c-42 -21 -63 -44 -41 -44 12 0 93 41 98 50 12 19 -13 17
-57 -6z"/>
<path d="M2220 1248 c-46 -10 -68 -23 -58 -34 11 -11 118 19 118 33 0 15 2 15
-60 1z"/>
<path d="M473 1146 c0 -6 -3 -24 -7 -40 -4 -18 -3 -25 4 -21 5 3 10 -1 10 -9
0 -9 -7 -16 -15 -16 -17 0 -18 -6 -5 -35 7 -17 9 -17 9 -3 1 10 11 26 23 38
13 12 17 20 9 20 -11 0 -11 3 -1 14 6 8 18 12 26 9 8 -3 14 0 14 5 0 6 -13 9
-30 7 -21 -3 -30 0 -30 10 0 8 5 15 10 15 6 0 10 4 10 8 0 5 -6 9 -13 9 -8 0
-14 -5 -14 -11z"/>
<path d="M30 1036 c0 -19 316 -20 324 0 4 11 -25 13 -159 13 -130 0 -165 -3
-165 -13z"/>
</g>
</svg>
