<?xml version="1.0" standalone="no"?>
<!DOCTYPE svg PUBLIC "-//W3C//DTD SVG 20010904//EN"
 "http://www.w3.org/TR/2001/REC-SVG-20010904/DTD/svg10.dtd">
<svg version="1.0" xmlns="http://www.w3.org/2000/svg"
 width="256.000000pt" height="253.000000pt" viewBox="0 0 256.000000 253.000000"
 preserveAspectRatio="xMidYMid meet">
<metadata>
Created by potrace 1.10, written by Peter Selinger 2001-2011
</metadata>
<g transform="translate(0.000000,253.000000) scale(0.100000,-0.100000)"
fill="#000000" stroke="none">
<path d="M764 2471 c-112 -18 -204 -58 -204 -90 0 -5 -21 -20 -47 -33 -25 -13
-55 -36 -65 -53 -19 -31 -21 -70 -3 -70 6 0 24 -10 41 -22 47 -33 176 -72 262
-78 42 -3 87 -8 100 -11 14 -3 22 0 22 9 0 11 -22 16 -82 21 -172 14 -323 71
-323 120 0 20 71 84 81 73 3 -3 6 -21 6 -41 0 -32 4 -37 49 -61 27 -14 49 -23
49 -20 0 2 11 0 25 -5 35 -13 134 -29 233 -36 71 -5 82 -4 82 10 0 14 -11 16
-67 15 -85 -1 -188 15 -275 43 -58 18 -68 25 -68 45 0 26 12 30 30 8 7 -8 19
-15 26 -15 8 0 22 -4 32 -9 30 -16 157 -31 269 -31 151 0 275 26 325 68 16 13
18 13 18 -1 0 -26 -11 -47 -26 -47 -8 0 -14 -4 -14 -10 0 -14 -160 -51 -217
-51 -13 1 -23 -5 -23 -12 0 -14 4 -15 90 -3 137 18 203 53 203 107 0 34 6 36
34 12 23 -21 40 -63 24 -63 -5 0 -13 -9 -16 -20 -3 -11 -13 -20 -21 -20 -8 0
-40 -9 -72 -20 -65 -23 -208 -43 -299 -40 -52 1 -63 -2 -63 -15 0 -13 12 -15
75 -14 41 1 75 6 75 11 0 5 5 6 10 3 27 -17 249 35 287 67 15 12 14 20 13
-112 -1 -125 -5 -130 -115 -154 -159 -35 -329 -39 -590 -12 -35 3 -129 35
-149 49 -20 15 -23 34 -25 165 -1 69 -4 82 -17 82 -13 0 -15 -7 -10 -31 3 -17
6 -73 6 -124 l0 -93 36 -21 c19 -12 46 -21 59 -21 13 0 26 -4 29 -9 6 -8 41
-17 116 -28 132 -19 496 -9 534 14 6 4 23 8 38 10 l28 3 0 -69 0 -68 -62 -29
c-61 -27 -70 -28 -228 -30 -91 -1 -174 2 -186 7 -45 16 -45 15 -42 -412 l3
-404 25 -11 c33 -16 144 -22 148 -9 1 6 -6 11 -15 11 -50 4 -125 14 -131 18
-5 3 -8 77 -7 165 0 89 -4 161 -9 161 -5 0 -4 6 1 13 13 16 13 48 0 65 -5 6
-6 12 -1 12 5 0 9 82 9 183 l0 182 180 -2 c178 -2 181 -2 248 27 42 17 67 24
68 17 1 -15 0 -113 -4 -340 -2 -118 1 -176 8 -174 10 4 13 93 16 493 l1 210
29 11 c32 12 30 3 33 180 0 56 4 105 9 109 23 23 -20 104 -56 104 -9 0 -17 13
-21 34 -8 41 -42 64 -136 90 -73 21 -310 30 -396 17z m331 -25 c17 -2 42 -9
58 -15 15 -6 39 -13 53 -15 15 -3 35 -13 45 -22 72 -65 -65 -123 -306 -129
-55 -2 -127 1 -160 7 -33 5 -69 11 -80 12 -11 2 -44 13 -72 26 -46 19 -53 26
-53 50 0 23 8 32 45 50 24 12 82 27 127 33 79 12 278 13 343 3z"/>
<path d="M530 1352 l0 -550 27 -26 c61 -61 183 -107 326 -121 44 -5 67 -12 67
-20 0 -24 33 -115 42 -115 20 0 5 -21 -32 -41 -22 -13 -40 -28 -40 -35 0 -7
-8 -10 -17 -8 -25 7 -82 -48 -89 -84 -5 -23 0 -36 23 -62 37 -41 74 -42 132
-6 23 15 42 24 42 21 1 -3 2 -8 3 -12 1 -5 8 -18 16 -30 27 -37 75 -33 173 16
68 34 96 42 129 40 66 -4 118 10 128 35 5 11 9 15 9 9 1 -18 46 -16 65 2 8 9
19 14 23 13 9 -2 76 18 108 32 11 6 67 25 125 44 58 19 137 46 175 61 39 15
85 30 103 35 31 8 69 21 117 40 11 5 45 17 75 27 30 10 66 27 80 38 40 32 120
116 120 127 0 5 6 16 14 24 8 7 24 44 35 81 74 242 -37 485 -254 559 -63 21
-170 14 -238 -15 -27 -12 -57 -21 -68 -21 -10 0 -19 -4 -19 -9 0 -5 -17 -12
-37 -16 -21 -4 -43 -11 -48 -15 -6 -5 -29 -13 -50 -19 -22 -5 -64 -19 -92 -30
-29 -12 -77 -30 -105 -42 -29 -11 -66 -24 -83 -28 -16 -4 -52 -18 -79 -29 -27
-12 -57 -22 -67 -22 -11 0 -19 -4 -19 -9 0 -12 44 -7 100 13 25 9 53 16 63 16
18 0 60 -24 85 -47 7 -7 18 -13 23 -13 5 0 9 -5 9 -10 0 -6 11 -23 24 -37 29
-31 74 -120 82 -163 4 -16 10 -30 15 -30 4 0 43 13 86 30 42 16 85 30 95 30 9
0 19 4 22 9 3 4 31 16 63 25 32 10 65 20 73 23 107 40 152 56 188 65 40 11 43
14 37 37 -12 48 -57 136 -93 180 -37 45 -117 90 -162 91 -21 1 -22 2 -8 10 25
15 161 14 205 -1 44 -16 120 -64 145 -94 91 -106 126 -255 93 -391 -10 -38
-18 -73 -19 -79 0 -5 -4 -12 -7 -15 -3 -3 -21 -28 -40 -56 -58 -86 -106 -118
-239 -160 -30 -9 -57 -20 -60 -25 -3 -4 -37 -17 -75 -29 -39 -12 -79 -25 -90
-30 -21 -10 -173 -62 -320 -112 -49 -16 -102 -39 -118 -50 -48 -34 -40 -14 12
30 27 23 59 62 71 87 12 25 26 45 31 45 5 0 9 9 9 20 0 12 7 34 15 50 9 17 15
31 14 32 -1 2 1 21 5 42 5 28 4 41 -6 47 -10 7 -10 9 0 9 6 0 12 7 12 16 0 13
-7 15 -36 9 -24 -4 -34 -3 -29 4 3 6 19 11 36 11 20 0 29 5 29 16 0 8 -4 13
-8 10 -4 -2 -6 10 -4 28 6 50 -54 170 -116 233 -59 59 -149 108 -187 101 -14
-3 -25 -1 -25 4 0 5 -26 6 -62 2 -202 -23 -346 -197 -351 -426 l-2 -68 -46 0
c-75 0 -149 18 -224 54 -120 59 -109 -4 -110 619 -1 408 -4 542 -13 545 -9 3
-12 -126 -12 -546z m1570 28 c3 -4 16 -11 30 -15 36 -11 97 -81 131 -151 34
-72 37 -94 9 -94 -20 0 -99 -24 -135 -40 -17 -8 -312 -113 -357 -127 -13 -4
-19 4 -27 35 -12 43 -88 163 -124 193 -12 11 -35 26 -51 35 -15 9 -24 19 -20
23 5 5 46 20 91 35 45 14 94 33 110 41 15 8 35 15 43 15 8 0 28 7 43 15 15 8
45 17 65 21 20 4 51 13 67 20 30 13 115 8 125 -6z m-648 -263 c64 -31 107 -70
145 -129 30 -49 65 -137 58 -149 -3 -4 -31 -15 -63 -25 -31 -9 -61 -21 -66
-26 -6 -4 -18 -8 -27 -8 -25 0 -79 -55 -79 -79 0 -12 -8 -24 -17 -28 -26 -9
-63 -44 -63 -60 0 -10 -20 -11 -92 -7 -110 7 -145 -3 -159 -46 -7 -19 -18 -30
-29 -30 -10 0 -24 -2 -32 -5 -19 -7 -49 58 -62 139 -29 170 40 346 169 431 55
36 79 46 100 41 11 -3 27 -1 35 5 26 17 123 5 182 -24z m208 -311 c0 -3 -4 -8
-10 -11 -5 -3 -10 -1 -10 4 0 6 5 11 10 11 6 0 10 -2 10 -4z m-42 -20 c-25
-19 -22 -36 5 -36 13 0 24 -6 24 -13 0 -26 -42 -13 -55 17 -13 31 -5 46 28 46
12 -1 12 -3 -2 -14z m-53 -15 c-3 -5 0 -21 6 -35 9 -19 20 -26 41 -26 16 0 28
-5 28 -12 0 -9 3 -8 10 2 5 8 12 11 16 7 16 -15 -12 -28 -39 -18 -18 7 -36 7
-57 0 -17 -6 -42 -9 -55 -6 -26 4 -36 -17 -12 -26 6 -2 9 -8 5 -12 -10 -10
-40 14 -32 26 3 5 -4 9 -15 9 -25 0 -26 8 -5 39 20 28 126 79 109 52z m81
-115 c8 -22 -15 -95 -34 -105 -9 -5 -30 -11 -47 -12 -27 -4 -30 -1 -32 31 -1
19 -5 47 -7 62 -5 24 -2 27 27 31 67 8 88 7 93 -7z m-169 -16 c8 -12 9 -21 3
-25 -6 -4 -8 -11 -5 -16 4 -5 3 -10 -2 -10 -64 -9 -65 -9 -59 17 4 13 2 24 -4
24 -5 0 -10 -7 -10 -15 0 -8 -2 -15 -4 -15 -2 0 -11 -3 -20 -6 -11 -4 -16 -1
-16 11 0 9 4 14 9 11 5 -3 11 4 14 15 5 17 11 20 32 17 14 -3 28 -1 31 3 8 14
18 11 31 -11z m28 -57 c-4 -10 -7 -26 -7 -35 0 -12 -7 -16 -29 -16 -32 1 -41
18 -9 18 11 0 19 3 18 8 -2 13 14 42 24 42 6 0 7 -8 3 -17z m-259 -48 c-3 -49
-4 -50 -42 -61 -40 -11 -74 -8 -74 6 0 5 -7 16 -16 25 -14 13 -15 21 -5 41 13
30 43 42 98 40 l41 -1 -2 -50z m62 37 c-18 -2 -28 -10 -29 -20 0 -11 -2 -12
-6 -4 -10 25 4 40 34 33 l28 -6 -27 -3z m113 -11 c11 18 21 6 13 -15 -10 -25
-39 -15 -42 14 -2 23 -1 23 9 6 9 -15 13 -16 20 -5z m-41 0 c0 -5 -10 -11 -23
-15 -12 -3 -36 -19 -53 -35 -17 -17 -34 -28 -38 -24 -10 11 -7 23 7 23 7 0 26
14 42 30 27 28 65 41 65 21z m207 -37 c-3 -3 -12 -4 -19 -1 -8 3 -5 6 6 6 11
1 17 -2 13 -5z m-139 -15 c12 0 22 -4 22 -9 0 -6 -7 -10 -15 -10 -13 0 -15 -7
-10 -34 6 -32 5 -34 -24 -41 -17 -3 -33 -11 -36 -16 -12 -19 -34 -8 -40 21 -4
17 -15 36 -26 43 -26 16 -24 24 9 42 17 10 39 13 62 9 19 -3 45 -5 58 -5z m99
-2 c-2 -7 -14 -13 -26 -13 -24 -1 -48 -20 -38 -30 3 -3 12 -2 19 2 25 16 44
14 23 -2 -47 -36 -52 -36 -49 1 1 19 5 38 8 43 8 14 68 13 63 -1z m-427 -71
c0 -8 -11 -17 -24 -20 -14 -3 -38 -18 -55 -32 l-31 -25 -17 35 c-9 20 -22 36
-29 36 -17 0 -28 -34 -13 -39 21 -7 60 -54 52 -62 -5 -4 -19 -10 -33 -14 -23
-7 -24 -6 -10 10 15 19 22 45 12 46 -4 0 -16 2 -27 4 -11 2 -28 -3 -37 -12
-10 -9 -18 -13 -18 -8 0 4 -6 2 -13 -4 -8 -6 -17 -8 -20 -4 -4 3 -7 1 -7 -5 0
-16 18 -24 25 -11 4 5 14 8 22 5 9 -4 21 1 28 11 8 10 17 14 21 10 13 -13 -11
-42 -37 -45 -13 -2 -28 -8 -34 -14 -7 -8 -6 -9 2 -4 7 4 21 3 30 -3 15 -8 12
-9 -12 -7 -16 2 -33 4 -37 5 -14 2 -21 72 -8 84 8 8 11 8 7 1 -8 -14 41 -6 50
9 4 6 -2 8 -15 5 -12 -4 -22 -3 -22 2 0 10 26 20 51 20 11 0 18 4 15 9 -8 12
21 33 104 78 23 12 27 11 53 -17 15 -17 27 -37 27 -44z m175 21 c14 -11 15
-16 5 -22 -7 -4 -15 -4 -19 1 -10 15 -48 14 -61 -1 -7 -8 -19 -15 -26 -15 -17
0 -17 -1 -4 -36 10 -25 11 -26 24 -8 9 12 25 18 51 17 29 -1 39 3 42 18 7 27
22 24 16 -3 -8 -38 -26 -68 -40 -68 -7 0 -12 3 -12 8 3 20 -3 28 -21 28 -13 0
-20 -7 -20 -18 0 -10 -6 -18 -12 -19 -10 0 -10 -2 0 -6 17 -7 15 -23 -3 -23
-9 0 -15 9 -15 23 0 22 -35 76 -43 67 -3 -3 3 -23 14 -44 22 -46 24 -66 7 -66
-7 0 -26 -7 -43 -16 -65 -34 -114 1 -93 66 8 25 74 70 101 70 8 0 17 7 21 15
3 8 13 15 23 15 10 1 29 7 43 15 32 18 42 18 65 2z m264 -15 c-7 -11 -19 -18
-26 -15 -7 3 -13 0 -13 -5 0 -16 -119 -70 -170 -77 l-45 -6 24 19 c14 11 30
18 37 15 16 -6 144 53 144 67 0 7 6 10 14 7 8 -3 20 1 27 9 17 20 23 10 8 -14z
m-399 4 c0 -3 -4 -8 -10 -11 -5 -3 -10 -1 -10 4 0 6 5 11 10 11 6 0 10 -2 10
-4z m90 -26 c0 -5 -7 -10 -16 -10 -8 0 -12 5 -9 10 3 6 10 10 16 10 5 0 9 -4
9 -10z m10 -80 c0 -5 -4 -10 -10 -10 -5 0 -10 5 -10 10 0 6 5 10 10 10 6 0 10
-4 10 -10z"/>
<path d="M1443 626 c-6 -8 -9 -17 -6 -20 7 -7 33 13 33 25 0 13 -13 10 -27 -5z"/>
</g>
</svg>
