<?xml version="1.0" standalone="no"?>
<!DOCTYPE svg PUBLIC "-//W3C//DTD SVG 20010904//EN"
 "http://www.w3.org/TR/2001/REC-SVG-20010904/DTD/svg10.dtd">
<svg version="1.0" xmlns="http://www.w3.org/2000/svg"
 width="256.000000pt" height="240.000000pt" viewBox="0 0 256.000000 240.000000"
 preserveAspectRatio="xMidYMid meet">
<metadata>
Created by potrace 1.10, written by Peter Selinger 2001-2011
</metadata>
<g transform="translate(0.000000,240.000000) scale(0.100000,-0.100000)"
fill="#000000" stroke="none">
<path d="M861 2078 c-47 -11 -57 -18 -85 -61 -20 -30 -19 32 -16 -1340 1 -354
3 -378 40 -419 34 -37 66 -40 430 -39 559 1 548 0 570 82 8 28 10 285 7 862
-3 768 -5 824 -22 860 -32 68 -27 67 -477 66 -223 -1 -423 -6 -447 -11z m863
-19 c55 -26 55 -16 57 -905 2 -451 0 -833 -4 -849 -15 -60 -11 -60 -484 -63
-431 -3 -433 -3 -462 19 -41 30 -52 86 -51 243 1 72 1 434 1 804 -1 744 -3
720 61 741 57 17 75 18 470 20 270 1 395 -2 412 -10z"/>
<path d="M902 1940 c-20 -5 -20 -13 -17 -335 2 -181 4 -467 5 -635 1 -196 5
-309 12 -317 7 -9 7 -13 0 -13 -7 0 -10 -44 -9 -130 1 -83 6 -130 13 -130 6 0
10 34 10 92 l0 93 141 3 c135 3 141 2 136 -16 -6 -23 16 -69 44 -95 28 -25 77
-28 113 -5 34 20 64 77 54 102 -5 14 6 16 80 16 51 0 86 4 86 10 0 6 -37 10
-90 10 -72 0 -92 3 -97 15 -18 48 -112 54 -154 9 -22 -23 -27 -24 -168 -24
l-146 0 -2 203 c-5 580 -5 1118 0 1123 3 3 174 7 380 9 l376 3 -2 -669 -2
-669 -42 0 c-28 0 -43 -4 -43 -13 0 -9 12 -11 40 -9 l40 4 1 -38 c2 -120 5
-154 14 -152 13 4 14 158 2 176 -6 7 -6 12 0 12 6 0 10 264 11 690 l2 690
-384 -2 c-212 -2 -394 -5 -404 -8z m466 -1357 c23 -50 13 -87 -29 -108 -44
-23 -74 -19 -103 16 -32 38 -33 54 -1 95 40 52 107 50 133 -3z"/>
<path d="M1271 564 c-18 -19 -20 -24 -7 -24 10 0 16 -8 16 -21 0 -12 5 -19 13
-16 6 2 12 10 12 18 0 8 6 14 13 14 19 0 19 9 -3 32 l-20 22 -24 -25z"/>
<path d="M1060 1837 c0 -15 27 -43 34 -36 2 2 6 13 8 24 2 14 -3 21 -19 23
-15 2 -23 -2 -23 -11z"/>
<path d="M1003 1794 c-8 -20 8 -36 26 -25 15 10 8 41 -9 41 -6 0 -13 -7 -17
-16z"/>
<path d="M1135 1791 c-3 -5 -1 -12 5 -16 12 -7 30 2 30 16 0 12 -27 12 -35 0z"/>
<path d="M1385 1760 c-4 -6 22 -10 69 -10 44 0 76 4 76 10 0 6 -30 10 -69 10
-39 0 -73 -4 -76 -10z"/>
<path d="M1005 1730 c-7 -12 2 -30 16 -30 12 0 12 27 0 35 -5 3 -12 1 -16 -5z"/>
<path d="M1143 1725 c-7 -20 2 -29 21 -22 9 4 13 13 10 22 -8 19 -23 19 -31 0z"/>
<path d="M1070 1685 c-16 -20 -1 -38 23 -29 21 8 22 18 3 33 -10 9 -16 8 -26
-4z"/>
<path d="M1035 1530 c-68 -13 3 -19 200 -16 151 2 210 6 213 15 3 9 -44 11
-190 9 -106 -1 -206 -5 -223 -8z"/>
<path d="M1117 1443 c-65 -3 -97 -7 -95 -15 4 -11 213 -12 231 -1 10 6 -13 24
-28 21 -5 -1 -54 -4 -108 -5z"/>
<path d="M1032 1269 c-16 -25 -14 -211 2 -206 7 2 11 40 12 94 1 50 4 95 7
100 4 6 100 9 239 7 l232 -2 8 -28 c4 -16 8 -101 8 -189 -1 -88 0 -177 0 -198
1 -22 -4 -54 -10 -73 l-12 -34 -218 0 c-120 0 -225 3 -234 6 -14 5 -16 29 -16
160 0 119 -3 152 -12 149 -20 -8 -14 -304 6 -323 12 -12 56 -14 246 -13 128 1
237 4 242 7 23 14 28 70 29 278 0 237 -3 273 -29 280 -10 2 -123 4 -252 5
-227 1 -236 0 -248 -20z"/>
<path d="M1087 1223 c-16 -15 -5 -23 33 -23 22 0 40 4 40 9 0 17 -59 29 -73
14z"/>
<path d="M1085 1140 c-10 -16 9 -17 155 -14 80 2 169 4 198 4 28 0 52 4 52 10
0 12 -397 12 -405 0z"/>
<path d="M1115 1041 c-8 -13 4 -18 48 -19 26 -1 37 3 37 13 0 17 -75 22 -85 6z"/>
<path d="M1373 803 c-18 -2 -33 -9 -33 -14 0 -13 129 -7 133 6 2 11 -48 15
-100 8z"/>
<path d="M1018 539 c-10 -5 -18 -19 -18 -30 0 -10 -5 -28 -12 -39 -16 -25 -1
-41 16 -17 18 24 57 22 63 -3 3 -11 9 -20 14 -20 5 0 9 9 9 20 0 11 -4 20 -9
20 -4 0 -8 17 -7 38 1 30 -3 37 -19 39 -11 2 -28 -2 -37 -8z m42 -24 c0 -15
-26 -32 -36 -23 -2 3 -2 13 2 22 8 20 34 21 34 1z"/>
<path d="M1538 523 c-20 -23 -30 -55 -20 -68 4 -5 17 -16 30 -23 19 -11 26
-10 47 5 31 23 35 41 18 76 -16 32 -52 36 -75 10z m60 -35 c2 -19 -2 -28 -17
-33 -28 -8 -41 1 -41 30 0 42 53 46 58 3z"/>
<path d="M944 389 c-2 -4 -1 -10 4 -13 5 -3 156 -6 337 -7 238 -1 330 1 333
10 3 8 -53 11 -200 12 -111 0 -263 1 -336 3 -73 1 -135 -1 -138 -5z"/>
<path d="M2187 1873 c-57 -17 -122 -77 -132 -122 -5 -22 -18 -38 -46 -54 -37
-21 -54 -57 -26 -57 26 0 87 -21 83 -29 -7 -11 64 -78 97 -90 53 -20 177 -5
177 21 0 4 6 8 13 8 11 0 35 28 33 40 0 3 7 16 17 30 11 16 17 43 17 77 0 123
-116 210 -233 176z m115 -30 c43 -17 86 -75 95 -126 18 -111 -99 -219 -199
-183 -57 20 -77 36 -103 76 -22 34 -30 40 -60 40 -44 0 -45 17 -1 35 25 10 35
22 40 45 3 17 17 46 31 64 47 62 118 79 197 49z"/>
<path d="M2274 1755 c-7 -17 4 -37 17 -30 12 8 12 45 -1 45 -6 0 -13 -7 -16
-15z"/>
<path d="M2177 1745 c-7 -16 8 -29 23 -20 15 9 12 35 -4 35 -8 0 -16 -7 -19
-15z"/>
<path d="M2193 1683 c-17 -6 -16 -34 1 -59 10 -14 27 -21 54 -22 38 -2 41 0
56 38 9 22 16 43 16 45 0 6 -111 5 -127 -2z m77 -45 c-28 -23 -55 -20 -55 7 0
15 8 21 35 25 43 6 51 -7 20 -32z"/>
<path d="M2230 1650 c0 -5 7 -10 15 -10 8 0 15 5 15 10 0 6 -7 10 -15 10 -8 0
-15 -4 -15 -10z"/>
<path d="M407 1814 c-11 -18 5 -64 22 -62 10 2 17 -5 19 -20 3 -18 6 -21 17
-12 11 9 12 7 8 -9 -4 -17 -8 -18 -29 -9 -13 6 -24 18 -25 27 0 12 -3 11 -8
-4 -6 -14 -4 -22 8 -26 32 -12 -30 -31 -105 -32 -40 -1 -70 -5 -68 -9 2 -3 0
-9 -5 -12 -5 -4 -13 -1 -17 5 -4 6 1 16 10 21 9 5 16 18 16 28 0 11 7 20 15
20 9 0 15 -9 15 -25 0 -14 6 -25 13 -25 23 0 27 11 10 36 -19 30 -10 31 18 2
l22 -23 -7 27 c-3 15 -2 29 3 32 15 9 33 -22 26 -44 -3 -11 -3 -20 2 -20 30 1
44 56 16 63 -17 4 -17 5 0 6 9 0 17 6 17 12 0 7 -9 9 -21 6 -15 -4 -23 0 -26
14 -7 27 -29 18 -25 -11 2 -13 -1 -20 -6 -16 -6 4 -13 2 -17 -4 -10 -17 -32
-11 -38 10 -3 11 -11 20 -17 20 -7 0 -10 -8 -7 -20 4 -17 0 -20 -24 -20 -36 0
-36 -2 -3 -155 14 -66 27 -129 28 -140 1 -11 7 -19 13 -18 6 1 35 5 64 7 30 3
77 10 104 16 28 5 68 12 89 15 52 6 57 12 46 60 -5 22 -17 83 -26 135 -23 134
-27 142 -61 129 -23 -9 -30 -7 -44 12 -9 12 -19 18 -22 13z m93 -67 c-1 -21
-1 -21 -15 -3 -8 10 -12 23 -9 28 9 14 24 -2 24 -25z m15 -104 c3 -21 9 -58
12 -83 2 -25 9 -48 15 -51 15 -10 -4 -19 -54 -25 -24 -3 -81 -12 -128 -19 -47
-7 -88 -11 -91 -9 -4 2 -12 32 -18 66 -6 35 -14 72 -17 84 -5 19 1 21 73 32
43 7 101 19 128 26 71 20 72 20 80 -21z"/>
<path d="M429 1584 c-33 -35 -34 -35 -48 -15 -15 23 -31 28 -31 9 1 -13 34
-58 43 -58 8 0 87 82 87 91 0 17 -16 9 -51 -27z"/>
<path d="M580 1648 c0 -15 98 -49 106 -37 5 9 -38 33 -78 43 -20 4 -28 2 -28
-6z"/>
<path d="M1973 1536 c-13 -6 -23 -14 -23 -18 0 -5 -5 -8 -11 -8 -16 0 -41 -28
-30 -34 5 -3 19 2 32 12 13 10 36 23 52 30 15 6 27 16 27 22 0 12 -18 11 -47
-4z"/>
<path d="M2313 1025 c-12 -8 -28 -12 -37 -9 -9 3 -16 1 -16 -4 0 -7 -13 -9
-34 -5 -26 4 -35 1 -41 -13 -7 -18 -25 -111 -60 -308 -9 -50 -18 -93 -21 -97
-8 -13 15 -21 144 -44 70 -13 135 -27 144 -30 9 -4 19 -1 23 5 8 13 64 314 71
388 5 47 4 52 -14 52 -11 0 -25 7 -32 15 -7 8 -16 15 -21 15 -4 0 -19 11 -33
25 -29 29 -43 31 -73 10z m62 -35 c4 -11 15 -20 26 -20 16 0 19 -4 13 -22 -3
-13 -7 -24 -8 -25 -1 -1 -32 5 -69 13 -54 13 -67 19 -67 35 0 14 7 19 25 19
14 0 25 5 25 10 0 19 48 11 55 -10z m-135 -10 c5 0 10 -12 12 -27 3 -26 8 -28
73 -40 98 -17 102 -16 109 12 4 16 11 22 21 19 15 -6 14 -29 -9 -147 -8 -40
-22 -114 -32 -165 -14 -75 -20 -92 -33 -88 -21 6 -166 34 -214 41 -30 5 -37
10 -33 23 3 9 10 44 15 77 30 200 55 306 68 300 8 -3 18 -5 23 -5z"/>
<path d="M2287 844 c-4 -4 -7 -18 -7 -32 0 -22 -3 -24 -30 -19 -23 5 -32 2
-40 -13 -14 -26 -5 -40 26 -40 24 0 25 -2 19 -40 -7 -39 -6 -40 24 -40 30 0
35 7 34 48 -1 9 10 12 31 10 28 -3 31 -1 31 27 0 23 -5 30 -20 30 -20 1 -20 4
-8 48 4 11 0 17 -10 17 -8 0 -22 2 -29 5 -8 3 -17 2 -21 -1z m29 -39 c-3 -8
-9 -22 -12 -30 -4 -11 0 -15 15 -15 13 0 21 -6 21 -17 0 -13 -3 -14 -11 -6
-12 12 -42 6 -34 -7 3 -5 1 -19 -5 -32 -8 -19 -9 -16 -6 19 1 23 -1 40 -6 37
-4 -3 -14 -2 -20 2 -9 6 -5 10 12 14 14 3 26 11 26 18 1 7 2 17 3 22 0 6 6 10
12 10 6 0 8 -7 5 -15z"/>
<path d="M319 926 c-2 -3 -42 -14 -89 -26 -47 -12 -86 -23 -87 -24 -1 -1 2
-18 7 -37 5 -19 12 -45 14 -59 3 -14 22 -81 42 -150 20 -69 36 -131 37 -137 0
-7 4 -13 8 -13 4 0 6 -8 5 -17 -1 -22 19 -20 134 14 47 14 102 28 123 33 59
12 59 -6 4 200 -38 145 -38 144 -114 184 -68 36 -76 39 -84 32z m23 -73 c12
-41 17 -48 38 -46 32 2 52 7 67 16 8 5 15 -5 22 -30 6 -21 23 -85 39 -143 33
-122 46 -106 -108 -145 -54 -14 -105 -27 -113 -31 -11 -4 -16 5 -22 33 -4 21
-10 43 -15 48 -5 6 -13 33 -18 60 -5 28 -23 94 -40 147 l-30 97 77 19 c42 11
79 20 83 21 4 0 13 -20 20 -46z m61 14 c21 -10 35 -22 32 -27 -4 -6 -11 -8
-16 -4 -5 3 -16 1 -24 -6 -11 -9 -17 -5 -29 19 -18 33 -20 45 -8 39 4 -2 24
-12 45 -21z"/>
<path d="M267 787 c-17 -12 -17 -18 -6 -80 15 -80 44 -131 35 -59 -4 23 -4 42
-1 42 4 0 21 -10 39 -22 26 -18 31 -27 25 -43 -12 -31 -10 -45 6 -45 9 0 15 9
15 24 0 32 12 39 36 21 22 -16 54 -20 54 -6 0 5 -16 15 -36 23 -34 12 -35 14
-29 50 8 46 -8 51 -24 8 -10 -30 -11 -31 -35 -15 -24 16 -24 18 -10 40 12 18
13 28 4 44 -6 12 -15 21 -20 21 -4 0 -14 2 -22 5 -7 3 -22 0 -31 -8z m53 -37
c0 -11 -7 -23 -15 -27 -19 -7 -20 -5 -29 25 -6 19 -4 22 18 22 19 0 26 -5 26
-20z"/>
<path d="M1903 867 c-3 -6 -1 -13 5 -15 7 -2 33 -15 58 -28 48 -25 64 -29 64
-16 0 16 -119 71 -127 59z"/>
<path d="M623 797 c-24 -11 -43 -27 -43 -35 0 -7 3 -12 8 -10 4 2 26 12 50 22
23 10 42 24 42 32 0 18 -6 17 -57 -9z"/>
</g>
</svg>
