<?xml version="1.0" standalone="no"?>
<!DOCTYPE svg PUBLIC "-//W3C//DTD SVG 20010904//EN"
 "http://www.w3.org/TR/2001/REC-SVG-20010904/DTD/svg10.dtd">
<svg version="1.0" xmlns="http://www.w3.org/2000/svg"
 width="256.000000pt" height="278.000000pt" viewBox="0 0 256.000000 278.000000"
 preserveAspectRatio="xMidYMid meet">
<metadata>
Created by potrace 1.10, written by Peter Selinger 2001-2011
</metadata>
<g transform="translate(0.000000,278.000000) scale(0.100000,-0.100000)"
fill="#000000" stroke="none">
<path d="M1320 2648 c-19 -5 -44 -13 -55 -17 -11 -5 -29 -12 -40 -16 -11 -4
-69 -25 -130 -47 -60 -22 -121 -42 -135 -45 -14 -3 -35 -13 -47 -20 -12 -8
-26 -12 -32 -9 -5 3 -11 2 -13 -2 -1 -4 -49 -23 -105 -42 -61 -20 -103 -39
-103 -47 0 -7 3 -13 7 -13 8 0 93 32 150 56 17 8 38 14 47 14 9 0 35 9 59 19
23 11 92 36 152 57 61 20 114 41 120 45 5 5 18 9 30 9 11 0 38 9 60 20 99 50
151 4 215 -193 12 -34 25 -71 30 -82 5 -11 24 -65 43 -120 72 -213 100 -290
106 -295 3 -3 7 -14 9 -25 3 -19 53 -171 75 -225 19 -49 108 -306 118 -340 6
-19 19 -55 30 -79 29 -63 71 -200 74 -243 2 -32 -3 -43 -31 -71 -20 -19 -59
-41 -92 -52 -31 -10 -75 -27 -97 -36 -54 -24 -306 -116 -339 -125 -14 -3 -29
-10 -32 -15 -3 -5 -13 -9 -22 -9 -10 0 -35 -9 -56 -21 -73 -39 -168 -3 -182
70 -4 17 -11 34 -15 37 -15 9 -10 24 9 24 19 0 53 34 56 56 1 7 5 17 9 20 15
15 6 75 -14 97 -17 18 -30 22 -79 21 l-59 -1 -12 36 c-7 20 -18 46 -26 58 -13
19 -12 26 4 60 19 41 23 117 6 134 -14 14 -88 23 -110 14 -26 -11 -53 -11 -52
0 0 6 7 9 15 7 8 -2 14 2 14 9 0 6 7 9 15 5 8 -3 15 -1 15 5 0 6 11 25 25 41
14 16 23 34 19 39 -3 5 -1 9 4 9 6 0 12 16 14 35 2 19 0 35 -5 35 -5 0 -6 7
-3 16 3 9 -5 30 -20 49 -28 38 -76 54 -100 34 -8 -6 -17 -10 -19 -7 -3 2 -18
41 -34 85 -16 45 -36 96 -44 115 -9 18 -25 62 -37 98 -27 80 -107 289 -120
312 -15 27 -12 105 5 138 8 16 25 36 37 44 14 10 19 19 13 25 -12 11 -44 -12
-70 -52 -20 -31 -26 -146 -8 -169 6 -7 16 -31 23 -53 7 -22 21 -56 31 -75 11
-19 19 -43 19 -52 0 -10 5 -18 10 -18 6 0 10 -8 10 -19 0 -10 9 -40 19 -67 27
-70 34 -87 37 -102 1 -7 12 -32 23 -54 11 -23 19 -44 16 -46 -2 -2 -16 3 -32
12 -15 8 -82 41 -148 73 -66 31 -126 64 -133 73 -15 19 -7 75 16 106 24 33 65
47 122 42 28 -3 50 -1 50 3 0 23 -65 34 -119 19 -51 -14 -97 -75 -100 -136 -1
-36 2 -44 31 -65 18 -14 60 -35 93 -48 33 -14 71 -33 84 -43 13 -10 28 -18 33
-18 5 0 28 -9 50 -20 23 -11 47 -20 53 -20 6 0 18 -22 27 -49 l16 -49 -32 -8
c-17 -4 -35 -8 -41 -9 -17 -3 -48 -15 -84 -33 -51 -25 -65 -53 -62 -128 1 -27
8 -41 51 -91 5 -6 17 -16 27 -21 15 -9 15 -11 0 -26 -9 -9 -23 -31 -31 -49
-15 -33 -39 -158 -31 -165 11 -12 23 14 34 76 7 38 22 84 34 103 26 43 23 67
-14 101 -32 30 -49 66 -49 105 0 30 61 93 90 93 10 0 22 5 25 10 4 6 10 8 15
5 5 -3 21 0 37 6 53 21 123 37 123 28 0 -5 6 -9 14 -9 17 0 46 -59 46 -94 0
-32 -23 -70 -69 -113 -45 -43 -90 -63 -140 -63 -27 0 -41 -4 -41 -13 0 -13 53
-15 100 -4 14 3 60 8 103 10 67 4 79 2 87 -13 35 -66 -22 -159 -110 -180 -28
-7 -56 -10 -64 -7 -16 6 -43 -9 -33 -19 4 -4 30 -7 58 -7 44 1 49 -1 44 -18
-4 -13 -1 -19 9 -19 10 0 16 9 16 24 0 16 7 27 20 31 11 3 20 13 20 21 0 29
21 12 40 -32 11 -25 20 -50 20 -55 0 -5 -25 -9 -56 -9 -50 0 -59 -3 -85 -31
-16 -17 -29 -37 -29 -45 0 -17 -4 -17 -28 -4 -9 5 -46 23 -82 40 -36 17 -75
41 -87 52 -12 11 -27 17 -33 13 -15 -9 12 -39 59 -63 20 -11 50 -27 66 -35 17
-9 42 -19 58 -22 l28 -6 -25 -42 c-40 -70 -41 -82 -7 -131 17 -25 48 -56 69
-71 80 -55 113 -75 137 -81 14 -3 25 -9 25 -13 0 -7 46 -29 150 -71 30 -12 62
-25 71 -30 24 -13 223 -64 270 -69 4 -1 19 -20 35 -44 16 -23 31 -44 34 -47 4
-3 22 -27 41 -55 18 -27 37 -52 42 -53 4 -2 7 -7 7 -12 0 -4 16 -33 37 -64 24
-37 40 -53 46 -47 11 11 -120 216 -180 282 -37 40 -33 50 20 50 49 0 87 9 87
21 0 10 -111 5 -129 -6 -5 -3 -33 -1 -62 4 -30 6 -67 13 -84 16 -31 5 -85 21
-120 35 -11 4 -61 24 -111 43 -107 42 -277 136 -334 185 -21 19 -42 47 -45 62
-7 31 21 98 70 165 l30 41 119 9 c163 12 186 -1 152 -90 -21 -54 -46 -68 -131
-73 -89 -5 -115 -11 -115 -24 0 -7 14 -8 40 -4 39 7 70 -2 54 -14 -12 -8 -34
-48 -34 -61 0 -5 4 -10 10 -10 12 0 51 75 43 84 -4 3 9 6 28 6 32 0 35 -3 48
-45 14 -48 48 -81 109 -105 27 -11 40 -11 75 0 52 17 69 29 60 44 -4 6 1 4 11
-4 16 -13 20 -12 31 3 6 9 14 14 17 12 5 -5 216 70 293 105 22 9 55 21 72 25
18 3 35 11 38 16 4 5 13 9 20 9 26 0 120 48 144 74 43 45 42 87 -5 226 -23 69
-48 139 -55 155 -7 17 -13 35 -14 40 0 6 -7 24 -14 40 -7 17 -18 49 -24 73 -6
23 -15 42 -19 42 -4 0 -8 8 -8 18 0 19 -32 114 -41 122 -3 3 -8 16 -11 30 -3
14 -34 104 -68 200 -34 96 -79 225 -100 285 -149 423 -149 423 -188 462 -32
32 -68 42 -112 31z"/>
<path d="M1725 2528 c-47 -138 -51 -158 -35 -158 10 0 27 35 34 69 2 9 8 29
14 44 7 16 12 35 12 43 0 17 -19 19 -25 2z"/>
<path d="M1854 2402 c-12 -9 -38 -30 -58 -46 -20 -15 -36 -34 -36 -42 0 -19
14 -18 31 2 7 9 32 29 56 45 24 17 43 36 43 44 0 19 -10 18 -36 -3z"/>
<path d="M1747 2162 c-15 -15 -27 -35 -27 -44 0 -9 -4 -19 -9 -22 -4 -3 -9
-28 -10 -56 0 -36 3 -50 13 -50 10 0 15 19 18 67 2 39 9 68 16 71 7 2 12 10
12 17 0 14 45 26 67 18 7 -3 13 -19 13 -37 0 -17 3 -69 6 -116 6 -79 9 -90 50
-154 24 -38 44 -73 44 -78 0 -4 7 -8 15 -8 8 0 15 3 15 6 0 13 -44 84 -52 84
-4 0 -8 6 -8 14 0 8 -6 21 -14 28 -13 14 -20 56 -32 198 -3 41 -11 78 -17 82
-27 17 -74 8 -100 -20z"/>
<path d="M1268 2073 c-21 -5 -23 -19 -5 -26 7 -3 5 -6 -5 -6 -22 -1 -23 -23
-2 -63 12 -22 18 -27 24 -18 5 7 7 18 6 24 -2 6 -1 8 1 3 3 -4 10 -4 16 0 7 3
9 3 5 -1 -4 -5 2 -22 12 -40 16 -30 16 -33 1 -45 -9 -6 -11 -9 -4 -6 6 3 21
-4 32 -16 21 -23 20 -40 -2 -35 -7 1 -9 1 -4 -1 15 -9 6 -21 -13 -16 -25 7
-26 28 -2 38 13 5 6 12 -33 29 -27 12 -65 31 -83 42 -29 19 -31 22 -16 35 14
12 14 14 -5 21 -25 9 -51 1 -51 -17 0 -7 -10 -11 -22 -10 -33 4 -34 4 -13 18
12 10 15 16 6 21 -6 4 -14 0 -17 -8 -3 -9 -12 -16 -20 -16 -30 0 -94 -180
-102 -282 -7 -94 2 -130 38 -151 20 -12 27 -23 24 -35 -5 -14 -3 -14 10 2 9
11 16 14 16 8 0 -18 17 -14 24 6 3 9 10 24 15 32 5 8 13 24 17 35 7 16 9 12
12 -20 2 -22 8 -46 14 -53 6 -7 8 -16 4 -20 -4 -4 -13 1 -20 11 -20 26 -33 21
-33 -14 0 -25 4 -30 19 -26 20 6 22 -1 9 -22 -6 -10 -15 -4 -37 24 -24 32 -29
35 -39 21 -14 -18 -35 -3 -35 26 0 10 -5 18 -11 18 -11 0 -2 -61 10 -70 4 -3
13 -26 21 -52 7 -27 17 -48 22 -48 5 0 8 -6 6 -12 -4 -20 74 -148 90 -148 8 0
12 6 9 14 -6 15 22 46 41 46 7 0 12 4 12 8 0 4 16 15 35 24 49 22 44 7 -10
-26 -56 -36 -66 -48 -55 -65 6 -11 19 -3 55 33 26 25 48 46 50 46 1 0 0 -11
-2 -24 -4 -20 2 -27 44 -45 26 -13 61 -29 76 -38 16 -8 31 -12 34 -9 3 3 12
-1 20 -9 30 -30 48 -17 92 65 l42 80 -20 26 c-37 47 -37 47 127 22 68 -10 95
-7 78 9 -7 7 -154 34 -188 34 -10 0 -15 6 -12 14 4 9 13 11 34 5 25 -7 27 -6
23 14 -4 20 -4 20 11 2 8 -10 17 -24 20 -30 8 -20 27 18 22 46 -3 16 0 28 7
31 9 4 9 7 0 17 -7 7 -9 25 -6 41 3 16 2 29 -3 29 -5 0 -10 23 -11 51 -1 28
-11 70 -22 93 -12 23 -21 48 -21 54 0 6 -9 27 -20 47 -11 19 -17 35 -14 35 2
0 -4 10 -16 22 -11 12 -20 27 -20 34 0 13 -102 107 -116 107 -5 0 -14 7 -20
15 -8 12 -15 12 -32 3 -21 -11 -24 -17 -26 -51 -1 -21 -39 -19 -42 3 -1 9 4
17 12 17 8 0 14 5 14 11 0 6 -9 8 -20 4 -21 -7 -28 10 -7 18 9 4 9 6 -1 6 -7
1 -20 -6 -29 -14 -8 -9 -18 -13 -22 -9 -3 4 0 9 7 11 6 3 12 11 12 19 0 17 18
18 56 4 33 -13 42 -6 21 15 -15 14 -61 18 -99 8z m161 -81 c5 -10 6 -24 1 -31
-11 -19 -39 7 -32 31 6 23 19 23 31 0z m65 -55 c19 -9 40 -29 47 -46 8 -17 18
-31 23 -31 4 0 6 -11 4 -25 -4 -17 -1 -25 9 -25 9 0 13 -6 9 -15 -3 -8 -2 -15
2 -15 12 0 64 -109 59 -123 -3 -7 -6 -5 -6 6 -1 9 -5 17 -11 17 -5 0 -10 7
-10 15 0 9 -11 27 -25 41 -14 14 -25 34 -25 45 0 12 -10 23 -26 29 -33 13 -34
13 -28 -5 4 -8 2 -15 -4 -15 -16 0 -22 28 -6 34 8 3 14 11 14 17 0 9 -4 9 -14
0 -20 -16 -26 -2 -21 47 4 41 -1 47 -36 44 -3 -1 -3 14 0 31 4 23 6 26 9 11 2
-12 17 -28 36 -37z m-383 13 c10 0 19 -7 19 -15 0 -17 31 -20 47 -4 8 8 13 5
18 -9 4 -13 12 -19 21 -15 7 3 14 1 14 -5 0 -6 3 -18 6 -27 6 -15 4 -16 -17
-3 -13 7 -32 19 -41 27 -15 11 -20 10 -43 -13 -14 -14 -28 -26 -31 -26 -9 0 0
45 11 52 5 4 6 11 1 15 -12 12 -37 -28 -31 -51 3 -12 2 -15 -1 -8 -10 21 -24
13 -24 -14 0 -21 4 -25 18 -19 9 4 26 8 37 10 18 4 18 3 4 -8 -9 -7 -14 -18
-12 -25 5 -12 -18 -72 -27 -72 -3 0 -11 4 -18 9 -11 6 -10 10 4 15 9 3 14 9
11 13 -4 3 -2 12 5 20 6 7 9 16 6 18 -9 9 -38 -6 -32 -16 3 -5 -2 -12 -10 -15
-9 -3 -16 -12 -16 -20 0 -8 -7 -14 -15 -14 -8 0 -15 -4 -15 -10 0 -5 -5 -10
-10 -10 -6 0 -7 6 -1 18 5 9 14 29 20 45 6 15 17 27 26 27 17 0 21 26 4 32 -7
2 -1 26 16 63 15 33 29 54 32 48 3 -7 13 -13 24 -13z m50 -3 c-10 -9 -11 -8
-5 6 3 10 9 15 12 12 3 -3 0 -11 -7 -18z m240 3 c26 -14 24 -32 -6 -60 -25
-23 -25 -23 -39 -4 -17 23 -10 40 10 23 12 -10 17 -9 27 0 9 10 8 11 -5 6 -11
-4 -18 -2 -18 4 0 6 5 11 11 11 5 0 7 5 4 10 -4 7 -13 7 -26 0 -11 -7 -19 -7
-19 -1 0 5 8 12 18 14 9 3 18 5 20 6 2 0 12 -4 23 -9z m58 -51 c-9 -17 -8 -23
2 -30 12 -8 11 -11 -1 -18 -9 -7 -17 -6 -21 1 -10 16 -40 1 -37 -18 2 -9 -3
-19 -11 -22 -8 -3 -11 0 -7 7 5 7 1 9 -8 5 -9 -3 -16 -1 -16 5 0 6 7 11 15 11
8 0 15 6 15 14 0 8 9 18 20 21 11 4 18 10 15 15 -3 5 3 13 12 19 28 16 35 13
22 -10z m-273 -34 c15 -14 31 -25 36 -25 5 0 16 -7 24 -15 31 -31 200 -57 215
-33 9 15 29 1 29 -22 0 -28 11 -50 24 -50 7 0 12 -15 12 -37 0 -21 3 -61 7
-90 6 -37 4 -61 -7 -87 -8 -20 -12 -44 -9 -53 4 -10 2 -14 -4 -10 -6 4 -27 -9
-46 -28 -27 -26 -48 -37 -81 -41 -50 -7 -53 -24 -5 -24 35 0 64 13 97 44 22
20 24 20 33 3 6 -9 15 -14 21 -11 8 5 9 1 5 -10 -4 -10 0 -30 10 -46 16 -28
16 -30 -15 -80 -18 -28 -32 -56 -32 -61 0 -16 -23 -10 -107 27 -75 34 -83 40
-89 70 -8 43 -28 61 -49 44 -9 -8 -15 -8 -15 -2 0 6 9 13 19 17 12 3 18 12 15
20 -4 10 1 12 18 9 23 -5 23 -5 3 11 -12 9 -21 11 -23 5 -2 -5 -10 -10 -18
-10 -8 0 -14 -6 -14 -14 0 -7 -11 -25 -25 -40 -14 -15 -23 -31 -20 -36 3 -4
-4 -6 -14 -3 -14 3 -24 -3 -35 -24 -11 -19 -15 -23 -16 -10 0 9 -4 17 -10 17
-5 0 -10 6 -10 13 0 6 -9 23 -20 37 -26 33 -26 48 0 25 26 -23 39 -11 16 14
-13 14 -14 21 -6 26 7 5 22 -4 37 -21 l24 -28 -22 -17 c-21 -16 -19 -39 3 -39
7 0 7 5 -1 14 -9 10 -8 15 4 20 8 3 21 3 29 0 7 -3 16 2 20 11 3 9 2 13 -4 10
-21 -13 -31 7 -14 26 9 11 14 22 10 26 -4 5 -12 0 -18 -10 -9 -17 -11 -17 -29
4 -13 16 -25 20 -44 15 -18 -5 -25 -2 -25 9 0 8 -4 15 -8 15 -4 0 -9 14 -10
32 l-3 31 21 -26 c21 -26 60 -37 60 -17 0 6 5 10 10 10 6 0 10 -7 10 -15 0 -8
-5 -15 -11 -15 -6 0 -4 -7 5 -15 21 -21 27 -19 22 10 -3 14 -1 25 3 25 16 0
28 -25 26 -57 -3 -33 18 -52 31 -31 4 7 2 14 -4 16 -7 2 -12 10 -12 19 0 10 6
12 20 8 11 -3 20 -3 20 1 0 15 -61 64 -79 64 -20 0 -37 17 -27 27 3 3 12 1 19
-5 23 -19 25 -4 6 36 -11 21 -20 51 -22 68 -2 17 -7 36 -11 43 -11 17 -9 101
4 185 7 42 14 76 16 76 2 0 15 -11 30 -25z m111 -21 c-3 -3 -15 0 -27 6 -17 9
-19 14 -9 26 10 12 14 11 26 -6 8 -12 13 -24 10 -26z m163 -14 c8 13 10 13 10
-1 0 -10 -10 -19 -25 -21 -30 -6 -34 -3 -28 23 5 18 6 19 19 2 12 -16 15 -16
24 -3z m81 -73 c-16 -16 -26 0 -10 19 9 11 15 12 17 4 2 -6 -1 -17 -7 -23z
m29 -37 c5 0 10 4 12 10 2 5 9 -3 16 -17 7 -17 8 -23 1 -16 -6 6 -17 9 -24 7
-17 -7 -39 22 -29 38 7 10 9 9 12 -4 2 -10 7 -18 12 -18z m-515 8 c4 -3 -3 -9
-14 -13 -12 -3 -21 -14 -21 -24 0 -29 -12 -33 -25 -8 -10 19 -9 24 8 38 20 16
40 19 52 7z m43 -15 c-2 -10 -8 -18 -13 -18 -6 -1 -20 -6 -32 -13 -13 -7 -23
-10 -23 -7 0 10 28 35 39 35 6 0 11 5 11 10 0 6 5 10 11 10 6 0 9 -8 7 -17z
m12 -38 c0 -8 -4 -15 -10 -15 -5 0 -10 -6 -10 -14 0 -16 -21 -26 -57 -26 -22
0 -24 -2 -13 -16 11 -12 10 -18 -3 -32 -16 -15 -17 -13 -17 32 0 47 1 48 26
42 19 -5 24 -4 18 6 -6 10 -3 9 9 -1 14 -11 17 -11 17 1 0 15 19 38 32 38 4 0
8 -7 8 -15z m459 1 c10 -12 9 -21 -3 -43 -8 -15 -16 -23 -16 -18 -9 81 -5 91
19 61z m51 -42 c0 -37 0 -37 -24 -28 -13 5 -14 9 -5 20 6 8 9 23 6 33 -3 14
-1 18 9 14 8 -3 14 -19 14 -39z m30 -4 c0 -5 -5 -10 -11 -10 -5 0 -7 5 -4 10
3 6 8 10 11 10 2 0 4 -4 4 -10z m-565 -47 c-7 -29 -21 -43 -42 -43 -22 0 -14
17 10 24 21 6 21 7 4 20 -14 11 -15 15 -5 19 31 13 40 7 33 -20z m533 -16 c4
1 6 -8 5 -20 -1 -12 0 -16 3 -9 3 6 17 12 30 12 14 0 23 -4 19 -10 -3 -5 -13
-6 -23 -3 -14 5 -15 3 -4 -8 16 -18 15 -29 -3 -29 -8 0 -15 -5 -15 -12 0 -6 3
-8 7 -5 3 4 13 -2 21 -14 21 -30 9 -33 -18 -4 -18 19 -20 28 -12 38 9 11 8 14
-3 14 -8 0 -15 -4 -15 -9 0 -4 -6 -8 -14 -8 -9 0 -15 15 -18 46 -4 53 1 62 20
37 7 -10 16 -17 20 -16z m49 8 c0 -8 -6 -15 -14 -15 -7 0 -13 9 -13 20 0 12 5
17 13 14 8 -3 14 -11 14 -19z m-87 -86 c0 -6 6 -9 14 -6 8 3 16 -2 19 -13 6
-23 -10 -30 -41 -18 -13 4 -28 5 -34 2 -7 -5 -8 -2 -2 7 22 36 44 50 44 28z
m-20 -63 c0 -8 -4 -17 -9 -21 -12 -7 -24 12 -16 25 9 15 25 12 25 -4z"/>
<path d="M1499 1907 c-5 -26 -2 -35 22 -59 37 -37 40 -35 18 9 -20 39 -38 62
-40 50z"/>
<path d="M1354 1719 c-7 -12 15 -31 28 -23 9 6 -1 34 -12 34 -5 0 -12 -5 -16
-11z"/>
<path d="M1216 1673 c-12 -12 -6 -33 9 -33 8 0 15 6 15 14 0 17 -14 28 -24 19z"/>
<path d="M1395 1590 c-10 -11 -46 -29 -79 -39 -67 -20 -78 -34 -45 -52 25 -13
143 -18 154 -7 16 15 -6 27 -30 16 -29 -13 -48 -1 -22 13 9 6 17 16 17 24 0 8
11 22 25 31 14 9 25 20 25 25 0 16 -27 9 -45 -11z m-45 -80 c0 -11 -14 -11
-50 0 -22 7 -21 8 13 9 20 1 37 -3 37 -9z"/>
<path d="M1150 2058 c-50 -14 -65 -32 -20 -24 19 4 43 7 53 7 9 0 17 6 17 12
0 7 5 4 11 -6 11 -19 29 -14 29 9 0 16 -37 17 -90 2z"/>
<path d="M1150 2020 c-8 -5 -12 -12 -9 -15 4 -3 12 1 19 10 14 17 11 19 -10 5z"/>
<path d="M1196 2023 c-11 -11 -6 -21 13 -26 14 -3 18 -11 15 -24 -3 -11 3 -26
15 -37 25 -23 26 -20 5 29 -17 42 -38 67 -48 58z"/>
<path d="M1275 1930 c-3 -6 1 -13 10 -16 19 -8 30 0 20 15 -8 14 -22 14 -30 1z"/>
<path d="M1960 1754 c0 -22 50 -85 62 -78 11 7 -34 84 -49 84 -7 0 -13 -3 -13
-6z"/>
<path d="M2020 1627 c0 -7 9 -32 20 -55 11 -22 20 -46 20 -52 0 -5 5 -10 11
-10 5 0 8 -4 5 -9 -3 -5 8 -49 24 -98 103 -298 90 -523 -37 -663 -28 -31 -31
-40 -18 -40 10 0 33 17 51 38 l33 37 1 -30 c0 -53 92 -266 132 -309 10 -11 18
-25 18 -32 0 -16 17 -27 29 -19 6 3 -12 41 -40 85 -27 44 -49 82 -49 85 0 4
-10 30 -23 58 -13 29 -29 72 -36 97 -7 25 -16 51 -20 59 -4 8 6 53 21 100 50
151 44 303 -18 486 -39 116 -93 266 -100 276 -8 13 -24 11 -24 -4z"/>
<path d="M165 1600 c-9 -15 31 -27 118 -35 65 -6 77 -5 77 8 0 10 -10 15 -34
15 -35 0 -107 10 -138 18 -9 3 -19 0 -23 -6z"/>
<path d="M295 1476 c-22 -8 -61 -19 -87 -26 -54 -14 -66 -35 -15 -27 51 8 89
17 106 26 16 9 23 11 41 11 6 0 10 7 10 15 0 18 -3 18 -55 1z"/>
<path d="M1122 1172 c-18 -16 -32 -32 -32 -36 0 -4 -9 -16 -20 -28 -21 -23
-26 -38 -12 -38 8 0 112 115 112 124 0 13 -18 4 -48 -22z"/>
<path d="M1825 1026 c-22 -7 -56 -20 -75 -28 -39 -18 -62 -26 -70 -25 -3 1
-18 -6 -35 -16 -29 -16 -59 -27 -230 -87 -129 -46 -179 -67 -183 -79 -6 -17
28 -13 78 10 25 12 92 38 150 59 102 37 244 91 345 132 28 11 58 22 67 25 10
3 15 9 12 14 -6 11 -9 11 -59 -5z"/>
<path d="M1755 61 c-10 -17 15 -45 29 -31 7 7 5 15 -6 26 -11 11 -18 13 -23 5z"/>
</g>
</svg>
